#!OML:ASF E:\Steps\Project 1\Capture day 1\Session 2\Subject.ASF
:FULLY-SPECIFIED
:DEGREES
506
root 13.2553 16.4245 9.08744 -149.104 -1.78855 177.945
lowerback -24.3269 -1.14151 -4.87005
upperback -4.71089 -1.19582 -1.00985
thorax 8.3713 -1.12092 1.24539
lowerneck -7.96598 -2.5849 -5.93447
upperneck 19.8784 -6.62124 12.2545
head 8.01824 -3.05278 4.3879
rclavicle 1.55052e-014 -3.57812e-015
rhumerus -31.4273 -19.2304 -82.795
rradius 22.8768
rwrist 4.41482
rhand -8.60839 -51.2594
rfingers 7.12502
rthumb 17.3234 -80.5074
lclavicle 1.55052e-014 -3.57812e-015
lhumerus -26.6307 1.58091 76.6914
lradius 11.7995
lwrist -12.2475
lhand -24.469 -16.4866
lfingers 7.12502
lthumb 2.02438 13.4836
rfemur -41.0078 18.0471 6.5461
rtibia 17.2143
rfoot -19.151 -8.40987
rtoes -20.6925
lfemur -37.5943 -14.3121 -14.9742
ltibia 16.4734
lfoot -12.4033 8.23535
ltoes -40.4537
507
root 13.256 16.4264 9.07236 -149.43 -1.8455 178.035
lowerback -24.4591 -1.0939 -4.76132
upperback -4.68865 -1.15255 -1.00124
thorax 8.46127 -1.09907 1.2028
lowerneck -7.92363 -2.57368 -5.87508
upperneck 19.8772 -6.58952 12.1524
head 8.00161 -3.04269 4.34652
rclavicle -1.2921e-015 1.98785e-015
rhumerus -31.321 -19.1282 -82.9039
rradius 22.7975
rwrist 4.78847
rhand -8.53271 -51.0589
rfingers 7.12502
rthumb 17.3962 -80.3005
lclavicle -1.2921e-015 1.98785e-015
lhumerus -26.5485 5.23829 75.3374
lradius 10.6215
lwrist -15.6719
lhand -24.8192 -16.6127
lfingers 7.12502
lthumb 1.68622 13.3604
rfemur -40.4601 18.2661 6.75128
rtibia 16.9347
rfoot -19.1837 -8.57316
rtoes -20.8227
lfemur -37.0558 -14.3687 -14.9552
ltibia 16.2253
lfoot -12.3403 8.30057
ltoes -41.9698
508
root 13.2568 16.4267 9.06215 -149.627 -1.85926 178.094
lowerback -24.6405 -1.08984 -4.70146
upperback -4.68199 -1.15906 -0.983022
thorax 8.56264 -1.10488 1.1821
lowerneck -7.93349 -2.54934 -5.87163
upperneck 19.8905 -6.52308 12.0423
head 7.99718 -3.0168 4.31549
rclavicle 4.32357e-015 0
rhumerus -31.1364 -18.9778 -83.079
rradius 22.7431
rwrist 5.22616
rhand -8.21813 -52.0641
rfingers 7.12502
rthumb 17.6989 -81.2786
lclavicle 4.32357e-015 0
lhumerus -26.2092 5.49037 75.8072
lradius 9.2934
lwrist -15.3548
lhand -25.631 -16.1794
lfingers 7.12502
lthumb 0.902103 13.7984
rfemur -40.0464 18.307 6.92322
rtibia 16.6279
rfoot -19.1274 -8.55116
rtoes -20.6236
lfemur -36.7137 -14.3776 -14.9425
ltibia 16.0412
lfoot -12.3412 8.32396
ltoes -42.4111
509
root 13.2614 16.4273 9.0616 -149.651 -1.94943 178.114
lowerback -24.7833 -1.13905 -4.74286
upperback -4.80546 -1.24356 -0.926615
thorax 8.50395 -1.15665 1.23938
lowerneck -7.90942 -2.53014 -5.86947
upperneck 19.9181 -6.47158 11.9281
head 7.99266 -3.00149 4.28217
rclavicle -2.03754e-015 -2.54444e-014
rhumerus -31.1398 -18.4903 -83.3041
rradius 22.8115
rwrist 5.18266
rhand -8.35896 -53.076
rfingers 7.12502
rthumb 17.5634 -82.3026
lclavicle -2.03754e-015 -2.54444e-014
lhumerus -25.9138 5.78008 76.3163
lradius 7.89029
lwrist -15.007
lhand -26.2267 -15.7018
lfingers 7.12502
lthumb 0.326815 14.2777
rfemur -39.8933 18.0511 7.08989
rtibia 16.5044
rfoot -19.1565 -8.38284
rtoes -20.7042
lfemur -36.6705 -14.2998 -14.915
ltibia 15.9806
lfoot -12.3042 8.17259
ltoes -41.9456
510
root 13.2653 16.4267 9.05571 -149.722 -2.0001 178.146
lowerback -24.8887 -1.12356 -4.74184
upperback -4.96918 -1.2615 -0.921088
thorax 8.37532 -1.17715 1.23861
lowerneck -7.84952 -2.53713 -5.79684
upperneck 19.9476 -6.48061 11.8241
head 7.98685 -3.01317 4.2341
rclavicle 3.8763e-015 3.97569e-016
rhumerus -31.2972 -18.1157 -83.4691
rradius 22.8415
rwrist 5.20521
rhand -8.19247 -52.4512
rfingers 7.12502
rthumb 17.7236 -81.6635
lclavicle 3.8763e-015 3.97569e-016
lhumerus -25.7396 5.8953 76.763
lradius 6.56897
lwrist -14.6293
lhand -26.9043 -15.4327
lfingers 7.12502
lthumb -0.327627 14.5468
rfemur -39.675 17.76 7.35776
rtibia 16.4428
rfoot -19.2792 -8.07681
rtoes -20.9853
lfemur -36.5054 -14.1301 -14.9688
ltibia 15.9071
lfoot -12.2793 7.95078
ltoes -40.9012
511
root 13.2638 16.4229 9.03925 -149.887 -2.00052 178.154
lowerback -25.1172 -1.0643 -4.67575
upperback -5.00387 -1.20101 -1.01101
thorax 8.44731 -1.15531 1.115
lowerneck -7.85674 -2.55887 -5.63496
upperneck 19.962 -6.51572 11.717
head 7.98877 -3.02724 4.16592
rclavicle -7.85199e-015 -5.1684e-015
rhumerus -31.2711 -18.3407 -83.5851
rradius 22.6707
rwrist 5.72633
rhand -7.81587 -51.5848
rfingers 7.12502
rthumb 18.086 -80.7639
lclavicle -7.85199e-015 -5.1684e-015
lhumerus -25.4576 5.91363 77.0862
lradius 5.32962
lwrist -14.6483
lhand -27.6217 -15.2337
lfingers 7.12502
lthumb -1.02052 14.7436
rfemur -39.3316 17.4502 7.63925
rtibia 16.3979
rfoot -19.3283 -7.70288
rtoes -20.4523
lfemur -36.1468 -14.1493 -15.0549
ltibia 15.7486
lfoot -12.3251 7.88313
ltoes -41.5403
512
root 13.2669 16.4231 9.02947 -150.074 -2.09086 178.163
lowerback -25.3077 -1.12705 -4.71594
upperback -4.97724 -1.26481 -0.998757
thorax 8.57899 -1.19033 1.12569
lowerneck -7.87462 -2.53347 -5.5222
upperneck 19.9543 -6.46031 11.5898
head 7.9769 -3.00068 4.10853
rclavicle 7.45443e-015 1.39149e-014
rhumerus -31.053 -18.4044 -83.767
rradius 22.5867
rwrist 6.42838
rhand -7.36189 -52.81
rfingers 7.12502
rthumb 18.5227 -81.9481
lclavicle 7.45443e-015 1.39149e-014
lhumerus -25.05 6.12648 77.4308
lradius 3.95753
lwrist -14.8161
lhand -28.1764 -15.1431
lfingers 7.12502
lthumb -1.55631 14.831
rfemur -38.9806 17.2354 7.90462
rtibia 16.3228
rfoot -19.2307 -7.67614
rtoes -20.9089
lfemur -35.8547 -14.1855 -15.0757
ltibia 15.6417
lfoot -12.2793 7.78818
ltoes -41.5461
513
root 13.2698 16.4227 9.01824 -150.251 -2.1263 178.253
lowerback -25.5592 -1.1714 -4.71807
upperback -4.93076 -1.31307 -0.913153
thorax 8.76494 -1.21697 1.19888
lowerneck -7.89601 -2.50121 -5.45761
upperneck 19.9344 -6.38489 11.4724
head 7.96144 -2.96616 4.06485
rclavicle -9.93923e-016 -1.55052e-014
rhumerus -30.8183 -18.1655 -83.933
rradius 22.4495
rwrist 6.77834
rhand -7.66666 -53.8296
rfingers 7.12502
rthumb 18.2296 -82.9954
lclavicle -9.93923e-016 -1.55052e-014
lhumerus -25.179 6.38267 77.7564
lradius 3.66752
lwrist -14.8449
lhand -28.293 -14.924
lfingers 7.12502
lthumb -1.66885 15.0492
rfemur -38.6346 17.0981 8.20303
rtibia 16.174
rfoot -19.1847 -7.59991
rtoes -22.0876
lfemur -35.5846 -14.2299 -14.9725
ltibia 15.5688
lfoot -12.2574 7.81499
ltoes -41.2685
514
root 13.2742 16.4256 9.01139 -150.439 -2.26321 178.306
lowerback -25.7656 -1.18852 -4.74286
upperback -4.8695 -1.31134 -0.891195
thorax 8.94045 -1.21808 1.23178
lowerneck -7.8383 -2.50058 -5.33273
upperneck 19.8815 -6.37963 11.399
head 7.92719 -2.96268 4.01893
rclavicle -6.01324e-015 3.45885e-014
rhumerus -30.6593 -18.3148 -84.0177
rradius 22.3307
rwrist 7.27964
rhand -8.25605 -54.7522
rfingers 7.12502
rthumb 17.6625 -83.97
lclavicle -6.01324e-015 3.45885e-014
lhumerus -25.2619 6.41046 78.0738
lradius 3.55061
lwrist -14.8302
lhand -28.1334 -14.8305
lfingers 7.12502
lthumb -1.51475 15.1438
rfemur -38.2643 17.0661 8.43572
rtibia 16.0232
rfoot -19.1888 -7.6005
rtoes -22.5804
lfemur -35.3468 -14.1935 -14.9477
ltibia 15.5545
lfoot -12.2271 7.69092
ltoes -41.4911
515
root 13.2751 16.426 9.00511 -150.547 -2.40748 178.303
lowerback -26.0939 -1.20151 -4.80149
upperback -4.8096 -1.291 -0.909952
thorax 9.17512 -1.21498 1.24168
lowerneck -7.68882 -2.50771 -5.18046
upperneck 19.8115 -6.40117 11.34
head 7.87261 -2.97497 3.97126
rclavicle 1.2921e-015 2.70347e-014
rhumerus -30.5262 -18.7951 -84.0099
rradius 22.173
rwrist 8.2528
rhand -8.62523 -54.811
rfingers 7.12502
rthumb 17.3072 -84.0604
lclavicle 1.2921e-015 2.70347e-014
lhumerus -25.1962 6.39346 78.4309
lradius 3.32644
lwrist -14.8479
lhand -27.8557 -14.5169
lfingers 7.12502
lthumb -1.24654 15.4592
rfemur -38.0216 17.1043 8.49012
rtibia 15.9016
rfoot -19.1725 -7.75565
rtoes -22.8117
lfemur -35.3156 -14.2521 -14.9598
ltibia 15.6993
lfoot -12.1914 7.65924
ltoes -41.8817
516
root 13.2775 16.4254 9.00147 -150.599 -2.49707 178.239
lowerback -26.318 -1.25784 -4.9645
upperback -4.80176 -1.3167 -0.883264
thorax 9.30227 -1.23751 1.35013
lowerneck -7.62871 -2.53186 -5.14461
upperneck 19.7822 -6.42618 11.2865
head 7.85155 -2.99097 3.94494
rclavicle 5.71506e-015 1.47101e-014
rhumerus -30.3245 -19.0204 -84.0033
rradius 22.0464
rwrist 9.09823
rhand -8.89662 -54.6985
rfingers 7.12502
rthumb 17.0459 -83.9707
lclavicle 5.71506e-015 1.47101e-014
lhumerus -25.1116 6.50687 78.8289
lradius 3.01216
lwrist -15.0533
lhand -27.9214 -14.5262
lfingers 7.12502
lthumb -1.31001 15.4496
rfemur -37.8778 17.0236 8.50661
rtibia 15.8496
rfoot -19.1765 -7.79862
rtoes -22.882
lfemur -35.4538 -14.1912 -15.096
ltibia 16.1103
lfoot -12.2594 7.53739
ltoes -42.0364
